<svg xmlns="http://www.w3.org/2000/svg" width="40" height="40" viewBox="0 0 40 40" fill="none">
    <g filter="url(#filter0_d_54_12628)">
        <path d="M34 31V31.75V31ZM6 31V31.75V31ZM5 30H4.25H5ZM5 2L4.25 2L5 2ZM34 1V1.75V1ZM35 2H35.75H35ZM35 30H34.25H35ZM17.197 8.803C16.9041 8.51011 16.4292 8.51011 16.1363 8.803C15.8434 9.0959 15.8434 9.57077 16.1363 9.86366L17.197 8.803ZM23.3333 16L23.8637 16.5303C24.1566 16.2374 24.1566 15.7626 23.8637 15.4697L23.3333 16ZM16.1363 22.1363C15.8434 22.4292 15.8434 22.9041 16.1363 23.197C16.4292 23.4899 16.9041 23.4899 17.197 23.197L16.1363 22.1363ZM34 30.25L6 30.25V31.75L34 31.75V30.25ZM6 30.25C5.93369 30.25 5.87011 30.2237 5.82322 30.1768L4.76256 31.2374C5.09075 31.5656 5.53588 31.75 6 31.75V30.25ZM5.82322 30.1768C5.77634 30.1299 5.75 30.0663 5.75 30H4.25C4.25 30.4641 4.43437 30.9092 4.76256 31.2374L5.82322 30.1768ZM5.75 30L5.75 2L4.25 2L4.25 30H5.75ZM5.75 2C5.75 1.93369 5.77634 1.87011 5.82322 1.82322L4.76256 0.762563C4.43437 1.09075 4.25 1.53587 4.25 2L5.75 2ZM5.82322 1.82322C5.87011 1.77634 5.9337 1.75 6 1.75V0.25C5.53587 0.25 5.09075 0.434374 4.76256 0.762563L5.82322 1.82322ZM6 1.75L34 1.75V0.25L6 0.25V1.75ZM34 1.75C34.0663 1.75 34.1299 1.77634 34.1768 1.82322L35.2374 0.762563C34.9092 0.434375 34.4641 0.25 34 0.25V1.75ZM34.1768 1.82322C34.2237 1.87011 34.25 1.9337 34.25 2H35.75C35.75 1.53587 35.5656 1.09075 35.2374 0.762563L34.1768 1.82322ZM34.25 2V30H35.75V2H34.25ZM34.25 30C34.25 30.0663 34.2237 30.1299 34.1768 30.1768L35.2374 31.2374C35.5656 30.9092 35.75 30.4641 35.75 30H34.25ZM34.1768 30.1768C34.1299 30.2237 34.0663 30.25 34 30.25V31.75C34.4641 31.75 34.9092 31.5656 35.2374 31.2374L34.1768 30.1768ZM16.1363 9.86366L22.803 16.5303L23.8637 15.4697L17.197 8.803L16.1363 9.86366ZM22.803 15.4697L16.1363 22.1363L17.197 23.197L23.8637 16.5303L22.803 15.4697Z" fill="#214972" fill-opacity="0.6" />
    </g>
    <defs>
        <filter id="filter0_d_54_12628" x="0.25" y="0.25" width="39.5" height="39.5" filterUnits="userSpaceOnUse" color-interpolation-filters="sRGB">
            <feFlood flood-opacity="0" result="BackgroundImageFix" />
            <feColorMatrix in="SourceAlpha" type="matrix" values="0 0 0 0 0 0 0 0 0 0 0 0 0 0 0 0 0 0 127 0" result="hardAlpha" />
            <feOffset dy="4" />
            <feGaussianBlur stdDeviation="2" />
            <feComposite in2="hardAlpha" operator="out" />
            <feColorMatrix type="matrix" values="0 0 0 0 0.156863 0 0 0 0 0.211765 0 0 0 0 0.352941 0 0 0 0.25 0" />
            <feBlend mode="normal" in2="BackgroundImageFix" result="effect1_dropShadow_54_12628" />
            <feBlend mode="normal" in="SourceGraphic" in2="effect1_dropShadow_54_12628" result="shape" />
        </filter>
    </defs>
</svg>