<?xml version="1.0" encoding="UTF-8"?>
<!DOCTYPE svg PUBLIC "-//W3C//DTD SVG 1.1//EN" "http://www.w3.org/Graphics/SVG/1.1/DTD/svg11.dtd">
<svg xmlns="http://www.w3.org/2000/svg" version="1.1" width="38px" height="38px" style="shape-rendering:geometricPrecision; text-rendering:geometricPrecision; image-rendering:optimizeQuality; fill-rule:evenodd; clip-rule:evenodd" xmlns:xlink="http://www.w3.org/1999/xlink">
<g><path style="opacity:0.966" fill="#fefefe" d="M 1.5,0.5 C 13.1667,0.5 24.8333,0.5 36.5,0.5C 36.5,12.1667 36.5,23.8333 36.5,35.5C 24.8333,35.5 13.1667,35.5 1.5,35.5C 1.5,23.8333 1.5,12.1667 1.5,0.5 Z M 13.5,9.5 C 14.7498,9.57735 15.5831,10.244 16,11.5C 16.6667,15.8333 16.6667,20.1667 16,24.5C 15.3946,26.4812 14.3946,26.8146 13,25.5C 12.2185,20.0833 12.3852,14.7499 13.5,9.5 Z M 22.5,9.5 C 23.4959,9.41423 24.3292,9.74756 25,10.5C 25.6667,15.5 25.6667,20.5 25,25.5C 23.6054,26.8146 22.6054,26.4812 22,24.5C 21.2742,19.4477 21.4409,14.4477 22.5,9.5 Z"/></g>
</svg>
